<svg xmlns="http://www.w3.org/2000/svg" class="graphdiagram" viewBox="-1544.4807773758253 -434.0814860110107 1441 750"><g class="layer relationships"><g class="related-pair"><g class="relationship" transform="translate(-774.7184145088208,-5.812560635397761) rotate(180)"><path class="relationship" d="M 31.18091090456495 1 L 207.61965630588355 1 L 207.61965630588355 4 L 215.61965630588355 0 L 207.61965630588355 -4 L 207.61965630588355 -1 L 31.18091090456495 -1 Z" fill="rgba(0, 0, 0, 0.3)" stroke="rgb(51, 51, 51)" stroke-width="0px"/><text class="type" text-anchor="middle" baseline-shift="30%" alignment-baseline="alphabetic" x="-119.40028360522426" y="0" font-size="14px" font-family="&quot;Helvetica Neue&quot;, Helvetica, Arial, sans-serif" transform="rotate(180)">COACH_IN</text></g></g><g class="related-pair"><g class="relationship" transform="translate(-774.7184145088208,-5.812560635397761) rotate(-29.10667185041617)"><path class="relationship" d="M 31.18091090456495 1 L 300.3564919467178 1 L 300.3564919467178 4 L 308.3564919467178 0 L 300.3564919467178 -4 L 300.3564919467178 -1 L 31.18091090456495 -1 Z" fill="rgba(0, 0, 0, 0.3)" stroke="rgb(51, 51, 51)" stroke-width="0px"/><text class="type" text-anchor="middle" baseline-shift="30%" alignment-baseline="alphabetic" x="165.76870142564138" y="0" font-size="14px" font-family="&quot;Helvetica Neue&quot;, Helvetica, Arial, sans-serif">TO</text></g></g><g class="related-pair"><g class="relationship" transform="translate(-774.7184145088208,-5.812560635397761) rotate(-90)"><path class="relationship" d="M 31.18091090456495 1 L 157.58649707347325 1 L 157.58649707347325 4 L 165.58649707347325 0 L 157.58649707347325 -4 L 157.58649707347325 -1 L 31.18091090456495 -1 Z" fill="rgba(0, 0, 0, 0.3)" stroke="rgb(51, 51, 51)" stroke-width="0px"/><text class="type" text-anchor="middle" baseline-shift="30%" alignment-baseline="alphabetic" x="94.3837039890191" y="0" font-size="14px" font-family="&quot;Helvetica Neue&quot;, Helvetica, Arial, sans-serif">IN</text></g></g><g class="related-pair"><g class="relationship" transform="translate(-774.7184145088208,-5.812560635397761) rotate(-54.40560649328324)"><path class="relationship" d="M 31.18091090456495 1 L 284.78468075919517 1 L 284.78468075919517 4 L 292.78468075919517 0 L 284.78468075919517 -4 L 284.78468075919517 -1 L 31.18091090456495 -1 Z" fill="rgba(0, 0, 0, 0.3)" stroke="rgb(51, 51, 51)" stroke-width="0px"/><text class="type" text-anchor="middle" baseline-shift="30%" alignment-baseline="alphabetic" x="157.98279583188005" y="0" font-size="14px" font-family="&quot;Helvetica Neue&quot;, Helvetica, Arial, sans-serif">PLAY IN</text></g></g><g class="related-pair"><g class="relationship" transform="translate(-774.7184145088208,-5.812560635397761) rotate(-138.1398988451358)"><path class="relationship" d="M 31.18091090456495 1 L 206.69986617467876 1 L 206.69986617467876 4 L 214.69986617467876 0 L 206.69986617467876 -4 L 206.69986617467876 -1 L 31.18091090456495 -1 Z" fill="rgba(0, 0, 0, 0.3)" stroke="rgb(51, 51, 51)" stroke-width="0px"/><text class="type" text-anchor="middle" baseline-shift="30%" alignment-baseline="alphabetic" transform="rotate(180)" x="-118.94038853962186" y="0" font-size="14px" font-family="&quot;Helvetica Neue&quot;, Helvetica, Arial, sans-serif">HAS</text></g></g><g class="related-pair"><g class="relationship" transform="translate(-774.7184145088208,-5.812560635397761) rotate(40.417558588379876)"><path class="relationship" d="M 31.18091090456495 1 L 256.56090222999507 1 L 256.56090222999507 4 L 264.56090222999507 0 L 256.56090222999507 -4 L 256.56090222999507 -1 L 31.18091090456495 -1 Z" fill="rgba(0, 0, 0, 0.3)" stroke="rgb(51, 51, 51)" stroke-width="0px"/><text class="type" text-anchor="middle" baseline-shift="30%" alignment-baseline="alphabetic" x="143.87090656728" y="0" font-size="14px" font-family="&quot;Helvetica Neue&quot;, Helvetica, Arial, sans-serif">HAS</text></g></g><g class="related-pair"><g class="relationship" transform="translate(-774.7184145088208,-5.812560635397761) rotate(143.37353017831617)"><path class="relationship" d="M 31.18091090456495 1 L 274.29686606234446 1 L 274.29686606234446 4 L 282.29686606234446 0 L 274.29686606234446 -4 L 274.29686606234446 -1 L 31.18091090456495 -1 Z" fill="rgba(0, 0, 0, 0.3)" stroke="rgb(51, 51, 51)" stroke-width="0px"/><text class="type" text-anchor="middle" baseline-shift="30%" alignment-baseline="alphabetic" transform="rotate(180)" x="-152.7388884834547" y="0" font-size="14px" font-family="&quot;Helvetica Neue&quot;, Helvetica, Arial, sans-serif">FOR</text></g></g><g class="related-pair"><g class="relationship" transform="translate(-774.7184145088208,-5.812560635397761) rotate(90)"><path class="relationship" d="M 31.18091090456495 1 L 181.99476058419862 1 L 181.99476058419862 4 L 189.99476058419862 0 L 181.99476058419862 -4 L 181.99476058419862 -1 L 31.18091090456495 -1 Z" fill="rgba(0, 0, 0, 0.3)" stroke="rgb(51, 51, 51)" stroke-width="0px"/><text class="type" text-anchor="middle" baseline-shift="30%" alignment-baseline="alphabetic" x="106.58783574438179" y="0" font-size="14px" font-family="&quot;Helvetica Neue&quot;, Helvetica, Arial, sans-serif">OWNS</text></g></g></g><g class="layer nodes"><circle class="node node-id-0" r="25.68091090456495" fill="rgb(247, 247, 249)" stroke="rgba(0, 0, 0, 0.3)" stroke-width="1px" cx="-774.7184145088208" cy="-5.812560635397761"/><g class="caption"><text class="caption node" text-anchor="middle" alignment-baseline="central" x="-774.7184145088208" y="-5.812560635397761" fill="rgb(51, 51, 51)" font-size="14px" font-family="&quot;Helvetica Neue&quot;, Helvetica, Arial, sans-serif">TEAM</text></g><circle class="node node-id-1" r="43.35778489818388" fill="rgb(247, 247, 249)" stroke="rgba(0, 0, 0, 0.3)" stroke-width="1px" cx="-1039.1958557128883" cy="-5.812560635397761"/><g class="caption"><text class="caption node" text-anchor="middle" alignment-baseline="central" x="-1039.1958557128883" y="-5.812560635397761" fill="rgb(51, 51, 51)" font-size="14px" font-family="&quot;Helvetica Neue&quot;, Helvetica, Arial, sans-serif">HeadCoach</text></g><circle class="node node-id-5" r="19.66368462781727" fill="rgb(247, 247, 249)" stroke="rgba(0, 0, 0, 0.3)" stroke-width="1px" cx="-483.3166381835942" cy="-168.04915618896464"/><g class="caption"><text class="caption node" text-anchor="middle" alignment-baseline="central" x="-483.3166381835942" y="-168.04915618896464" fill="rgb(51, 51, 51)" font-size="14px" font-family="&quot;Helvetica Neue&quot;, Helvetica, Arial, sans-serif">City</text></g><circle class="node node-id-6" r="57.95120169054268" fill="rgb(247, 247, 249)" stroke="rgba(0, 0, 0, 0.3)" stroke-width="1px" cx="-774.7184145088208" cy="-234.85025939941372"/><g class="caption"><text class="caption node" text-anchor="middle" alignment-baseline="central" x="-774.7184145088208" y="-234.85025939941372" fill="rgb(51, 51, 51)" font-size="14px" font-family="&quot;Helvetica Neue&quot;, Helvetica, Arial, sans-serif">GeneralManager</text></g><circle class="node node-id-7" r="24.95401851677881" fill="rgb(247, 247, 249)" stroke="rgba(0, 0, 0, 0.3)" stroke-width="1px" cx="-586.5794616699222" cy="-268.65660400390595"/><g class="caption"><text class="caption node" text-anchor="middle" alignment-baseline="central" x="-586.5794616699222" y="-268.65660400390595" fill="rgb(51, 51, 51)" font-size="14px" font-family="&quot;Helvetica Neue&quot;, Helvetica, Arial, sans-serif">Arena</text></g><circle class="node node-id-8" r="78.30131832997293" fill="rgb(247, 247, 249)" stroke="rgba(0, 0, 0, 0.3)" stroke-width="1px" cx="-997.0350585937496" cy="-205.00660400390626"/><g class="caption"><text class="caption node" text-anchor="middle" alignment-baseline="central" x="-997.0350585937496" y="-205.00660400390626" fill="rgb(51, 51, 51)" font-size="14px" font-family="&quot;Helvetica Neue&quot;, Helvetica, Arial, sans-serif">DLEAGUEAFFILIATION</text></g><circle class="node node-id-9" r="51.922790815962166" fill="rgb(247, 247, 249)" stroke="rgba(0, 0, 0, 0.3)" stroke-width="1px" cx="-529.5794616699225" cy="202.94661254882797"/><circle class="node node-id-10" r="23.984687100753657" fill="rgb(247, 247, 249)" stroke="rgba(0, 0, 0, 0.3)" stroke-width="1px" cx="-1024.9361877441415" cy="180.19497375488268"/><g class="caption"><text class="caption node" text-anchor="middle" alignment-baseline="central" x="-529.5794616699225" y="202.94661254882797" fill="rgb(51, 51, 51)" font-size="14px" font-family="&quot;Helvetica Neue&quot;, Helvetica, Arial, sans-serif">ArenaCapacity</text></g><g class="caption"><text class="caption node" text-anchor="middle" alignment-baseline="central" x="-1024.9361877441415" y="180.19497375488268" fill="rgb(51, 51, 51)" font-size="14px" font-family="&quot;Helvetica Neue&quot;, Helvetica, Arial, sans-serif">Years</text></g><circle class="node node-id-11" r="27.26441260002711" fill="rgb(247, 247, 249)" stroke="rgba(0, 0, 0, 0.3)" stroke-width="1px" cx="-774.7184145088208" cy="216.94661254882794"/><g class="caption"><text class="caption node" text-anchor="middle" alignment-baseline="central" x="-774.7184145088208" y="216.94661254882794" fill="rgb(51, 51, 51)" font-size="14px" font-family="&quot;Helvetica Neue&quot;, Helvetica, Arial, sans-serif">Owner</text></g></g><g class="layer properties"><g class="speech-bubble node-speech-bubble" transform="translate(-749.0375036042559,-5.812560635397761) "><path class="speech-bubble-outline" transform="scale(1,1) " d="M 0 0 L 12 -4 L 12 -28 A 4 4 0 0 1 16 -32 L 193.92599487304688 -32 A 4 4 0 0 1 197.92599487304688 -28 L 197.92599487304688 28 A 4 4 0 0 1 193.92599487304688 32 L 16 32 A 4 4 0 0 1 12 28 L 12 4 Z" fill="rgb(255, 255, 255)" stroke="rgba(0, 0, 0, 0.5)" stroke-width="1px"/><text class="speech-bubble-content property-key" x="111.42399597167969" y="-21" alignment-baseline="central" text-anchor="end" font-size="14px" font-family="&quot;Helvetica Neue&quot;, Helvetica, Arial, sans-serif" xml:space="preserve">{ id: </text><text class="speech-bubble-content property-value" x="111.42399597167969" y="-21" alignment-baseline="central" font-size="14px" font-family="&quot;Helvetica Neue&quot;, Helvetica, Arial, sans-serif">1610612737}</text><text class="speech-bubble-content property-key" x="111.42399597167969" y="-7" alignment-baseline="central" text-anchor="end" font-size="14px" font-family="&quot;Helvetica Neue&quot;, Helvetica, Arial, sans-serif" xml:space="preserve">{League_id: </text><text class="speech-bubble-content property-value" x="111.42399597167969" y="-7" alignment-baseline="central" font-size="14px" font-family="&quot;Helvetica Neue&quot;, Helvetica, Arial, sans-serif">0}</text><text class="speech-bubble-content property-key" x="111.42399597167969" y="7" alignment-baseline="central" text-anchor="end" font-size="14px" font-family="&quot;Helvetica Neue&quot;, Helvetica, Arial, sans-serif" xml:space="preserve">{abbreviation: </text><text class="speech-bubble-content property-value" x="111.42399597167969" y="7" alignment-baseline="central" font-size="14px" font-family="&quot;Helvetica Neue&quot;, Helvetica, Arial, sans-serif">ATL}</text><text class="speech-bubble-content property-key" x="111.42399597167969" y="21" alignment-baseline="central" text-anchor="end" font-size="14px" font-family="&quot;Helvetica Neue&quot;, Helvetica, Arial, sans-serif" xml:space="preserve">{YearFounded: </text><text class="speech-bubble-content property-value" x="111.42399597167969" y="21" alignment-baseline="central" font-size="14px" font-family="&quot;Helvetica Neue&quot;, Helvetica, Arial, sans-serif">1949}</text></g><g class="speech-bubble node-speech-bubble" transform="translate(-1082.553640611072,-5.812560635397761) "><path class="speech-bubble-outline" transform="scale(-1,1) " d="M 0 0 L 12 -4 L 12 -7 A 4 4 0 0 1 16 -11 L 145.13600158691406 -11 A 4 4 0 0 1 149.13600158691406 -7 L 149.13600158691406 7 A 4 4 0 0 1 145.13600158691406 11 L 16 11 A 4 4 0 0 1 12 7 L 12 4 Z" fill="rgb(255, 255, 255)" stroke="rgba(0, 0, 0, 0.5)" stroke-width="1px"/><text class="speech-bubble-content property-key" x="-97.9280014038086" y="0" alignment-baseline="central" text-anchor="end" font-size="14px" font-family="&quot;Helvetica Neue&quot;, Helvetica, Arial, sans-serif" xml:space="preserve">{name: </text><text class="speech-bubble-content property-value" x="-97.9280014038086" y="0" alignment-baseline="central" font-size="14px" font-family="&quot;Helvetica Neue&quot;, Helvetica, Arial, sans-serif">Lloyd Pierce}</text></g><g class="speech-bubble node-speech-bubble" transform="translate(-469.4123134401509,-181.9534809324079) "><path class="speech-bubble-outline" transform="scale(1,-1) " d="M 0 0 L 16 12 L 111.69000244140625 12 A 4 4 0 0 1 115.69000244140625 16 L 115.69000244140625 30 A 4 4 0 0 1 111.69000244140625 34 L 16 34 A 4 4 0 0 1 12 30 L 12 16 Z" fill="rgb(255, 255, 255)" stroke="rgba(0, 0, 0, 0.5)" stroke-width="1px"/><text class="speech-bubble-content property-key" x="63.20800018310547" y="-23" alignment-baseline="central" text-anchor="end" font-size="14px" font-family="&quot;Helvetica Neue&quot;, Helvetica, Arial, sans-serif" xml:space="preserve">{name: </text><text class="speech-bubble-content property-value" x="63.20800018310547" y="-23" alignment-baseline="central" font-size="14px" font-family="&quot;Helvetica Neue&quot;, Helvetica, Arial, sans-serif">Atlanta}</text></g><g class="speech-bubble node-speech-bubble" transform="translate(-774.7184145088208,-292.8014610899564) "><path class="speech-bubble-outline" transform="scale(1,-1) " d="M 0 0 L -4 12 L -70.92399597167969 12 A 4 4 0 0 0 -74.92399597167969 16 L -74.92399597167969 30 A 4 4 0 0 0 -70.92399597167969 34 L 70.92399597167969 34 A 4 4 0 0 0 74.92399597167969 30 L 74.92399597167969 16 A 4 4 0 0 0 70.92399597167969 12 L 4 12 Z" fill="rgb(255, 255, 255)" stroke="rgba(0, 0, 0, 0.5)" stroke-width="1px"/><text class="speech-bubble-content property-key" x="-23.71599578857422" y="-23" alignment-baseline="central" text-anchor="end" font-size="14px" font-family="&quot;Helvetica Neue&quot;, Helvetica, Arial, sans-serif" xml:space="preserve">{name: </text><text class="speech-bubble-content property-value" x="-23.71599578857422" y="-23" alignment-baseline="central" font-size="14px" font-family="&quot;Helvetica Neue&quot;, Helvetica, Arial, sans-serif">Travis Schlenk}</text></g><g class="speech-bubble node-speech-bubble" transform="translate(-568.9343059588533,-286.30175971497493) "><path class="speech-bubble-outline" transform="scale(1,-1) " d="M 0 0 L 16 12 L 177.0419921875 12 A 4 4 0 0 1 181.0419921875 16 L 181.0419921875 30 A 4 4 0 0 1 177.0419921875 34 L 16 34 A 4 4 0 0 1 12 30 L 12 16 Z" fill="rgb(255, 255, 255)" stroke="rgba(0, 0, 0, 0.5)" stroke-width="1px"/><text class="speech-bubble-content property-key" x="63.20800018310547" y="-23" alignment-baseline="central" text-anchor="end" font-size="14px" font-family="&quot;Helvetica Neue&quot;, Helvetica, Arial, sans-serif" xml:space="preserve">{name: </text><text class="speech-bubble-content property-value" x="63.20800018310547" y="-23" alignment-baseline="central" font-size="14px" font-family="&quot;Helvetica Neue&quot;, Helvetica, Arial, sans-serif">State Farm Arena}</text></g><g class="speech-bubble node-speech-bubble" transform="translate(-1052.40245176072,-260.37399717087663) "><path class="speech-bubble-outline" transform="scale(-1,-1) " d="M 0 0 L 16 12 L 195.67599487304688 12 A 4 4 0 0 1 199.67599487304688 16 L 199.67599487304688 30 A 4 4 0 0 1 195.67599487304688 34 L 16 34 A 4 4 0 0 1 12 30 L 12 16 Z" fill="rgb(255, 255, 255)" stroke="rgba(0, 0, 0, 0.5)" stroke-width="1px"/><text class="speech-bubble-content property-key" x="-112.68399810791016" y="-23" alignment-baseline="central" text-anchor="end" font-size="14px" font-family="&quot;Helvetica Neue&quot;, Helvetica, Arial, sans-serif" xml:space="preserve">{TeamName: </text><text class="speech-bubble-content property-value" x="-112.68399810791016" y="-23" alignment-baseline="central" font-size="14px" font-family="&quot;Helvetica Neue&quot;, Helvetica, Arial, sans-serif">Erie Bayhawks}</text></g><g class="speech-bubble relationship-speech-bubble" transform="translate(-863.30241148748,-85.18315660922875) "><path class="speech-bubble-outline" transform="scale(-1,1) " d="M 0 0 L 16 12 L 115.56800651550293 12 A 4 4 0 0 1 119.56800651550293 16 L 119.56800651550293 30 A 4 4 0 0 1 115.56800651550293 34 L 16 34 A 4 4 0 0 1 12 30 L 12 16 Z" fill="rgb(255, 255, 255)" stroke="rgba(0, 0, 0, 0.5)" stroke-width="1px"/><text class="speech-bubble-content property-key" x="-45.036001205444336" y="23" alignment-baseline="central" text-anchor="end" font-size="14px" font-family="&quot;Helvetica Neue&quot;, Helvetica, Arial, sans-serif" xml:space="preserve">{HasTeam: </text><text class="speech-bubble-content property-value" x="-45.036001205444336" y="23" alignment-baseline="central" font-size="14px" font-family="&quot;Helvetica Neue&quot;, Helvetica, Arial, sans-serif">true}</text></g><g class="speech-bubble node-speech-bubble" transform="translate(-492.864504185825,239.6615700329254) "><path class="speech-bubble-outline" transform="scale(1,1) " d="M 0 0 L 16 12 L 124.92000198364258 12 A 4 4 0 0 1 128.92000198364258 16 L 128.92000198364258 30 A 4 4 0 0 1 124.92000198364258 34 L 16 34 A 4 4 0 0 1 12 30 L 12 16 Z" fill="rgb(255, 255, 255)" stroke="rgba(0, 0, 0, 0.5)" stroke-width="1px"/><text class="speech-bubble-content property-key" x="81.33800506591797" y="23" alignment-baseline="central" text-anchor="end" font-size="14px" font-family="&quot;Helvetica Neue&quot;, Helvetica, Arial, sans-serif" xml:space="preserve">{capacity: </text><text class="speech-bubble-content property-value" x="81.33800506591797" y="23" alignment-baseline="central" font-size="14px" font-family="&quot;Helvetica Neue&quot;, Helvetica, Arial, sans-serif">18729}</text></g><g class="speech-bubble node-speech-bubble" transform="translate(-1041.895922637722,197.1547086484631) "><path class="speech-bubble-outline" transform="scale(-1,1) " d="M 0 0 L 16 12 L 118.42399978637695 12 A 4 4 0 0 1 122.42399978637695 16 L 122.42399978637695 44 A 4 4 0 0 1 118.42399978637695 48 L 16 48 A 4 4 0 0 1 12 44 L 12 16 Z" fill="rgb(255, 255, 255)" stroke="rgba(0, 0, 0, 0.5)" stroke-width="1px"/><text class="speech-bubble-content property-key" x="-51.79800033569336" y="23" alignment-baseline="central" text-anchor="end" font-size="14px" font-family="&quot;Helvetica Neue&quot;, Helvetica, Arial, sans-serif" xml:space="preserve">{MaxYear: </text><text class="speech-bubble-content property-key" x="-51.79800033569336" y="37" alignment-baseline="central" text-anchor="end" font-size="14px" font-family="&quot;Helvetica Neue&quot;, Helvetica, Arial, sans-serif" xml:space="preserve">(MinYear: </text><text class="speech-bubble-content property-value" x="-51.79800033569336" y="23" alignment-baseline="central" font-size="14px" font-family="&quot;Helvetica Neue&quot;, Helvetica, Arial, sans-serif">2019}</text><text class="speech-bubble-content property-value" x="-51.79800033569336" y="37" alignment-baseline="central" font-size="14px" font-family="&quot;Helvetica Neue&quot;, Helvetica, Arial, sans-serif">1949}</text></g><g class="speech-bubble node-speech-bubble" transform="translate(-774.7184145088208,244.21102514885504) "><path class="speech-bubble-outline" transform="scale(1,1) " d="M 0 0 L -4 12 L -65.7300033569336 12 A 4 4 0 0 0 -69.7300033569336 16 L -69.7300033569336 30 A 4 4 0 0 0 -65.7300033569336 34 L 65.7300033569336 34 A 4 4 0 0 0 69.7300033569336 30 L 69.7300033569336 16 A 4 4 0 0 0 65.7300033569336 12 L 4 12 Z" fill="rgb(255, 255, 255)" stroke="rgba(0, 0, 0, 0.5)" stroke-width="1px"/><text class="speech-bubble-content property-key" x="-18.522003173828125" y="23" alignment-baseline="central" text-anchor="end" font-size="14px" font-family="&quot;Helvetica Neue&quot;, Helvetica, Arial, sans-serif" xml:space="preserve">{name: </text><text class="speech-bubble-content property-value" x="-18.522003173828125" y="23" alignment-baseline="central" font-size="14px" font-family="&quot;Helvetica Neue&quot;, Helvetica, Arial, sans-serif">Tony Ressler}</text></g></g><g class="layer overlay"><circle class="node overlay" r="26.18091090456495" stroke="none" fill="rgba(255, 255, 255, 0)" cx="-774.7184145088208" cy="-5.812560635397761"/><circle class="node ring" r="31.18091090456495" fill="none" stroke="rgba(255, 255, 255, 0)" stroke-width="10px" cx="-774.7184145088208" cy="-5.812560635397761"/><circle class="node overlay" r="43.85778489818388" stroke="none" fill="rgba(255, 255, 255, 0)" cx="-1039.1958557128883" cy="-5.812560635397761"/><circle class="node ring" r="48.85778489818388" fill="none" stroke="rgba(255, 255, 255, 0)" stroke-width="10px" cx="-1039.1958557128883" cy="-5.812560635397761"/><path class="relationship overlay" fill="rgba(255, 255, 255, 0)" stroke="rgba(255, 255, 255, 0)" stroke-width="10px" transform="translate(-774.7184145088208,-5.812560635397761) rotate(180)" d="M 31.18091090456495 1 L 207.61965630588355 1 L 207.61965630588355 4 L 215.61965630588355 0 L 207.61965630588355 -4 L 207.61965630588355 -1 L 31.18091090456495 -1 Z"/><circle class="node overlay" r="20.16368462781727" stroke="none" fill="rgba(255, 255, 255, 0)" cx="-483.3166381835942" cy="-168.04915618896464"/><circle class="node ring" r="25.16368462781727" fill="none" stroke="rgba(255, 255, 255, 0)" stroke-width="10px" cx="-483.3166381835942" cy="-168.04915618896464"/><path class="relationship overlay" fill="rgba(255, 255, 255, 0)" stroke="rgba(255, 255, 255, 0)" stroke-width="10px" transform="translate(-774.7184145088208,-5.812560635397761) rotate(-29.10667185041617)" d="M 31.18091090456495 1 L 300.3564919467178 1 L 300.3564919467178 4 L 308.3564919467178 0 L 300.3564919467178 -4 L 300.3564919467178 -1 L 31.18091090456495 -1 Z"/><circle class="node overlay" r="58.45120169054268" stroke="none" fill="rgba(255, 255, 255, 0)" cx="-774.7184145088208" cy="-234.85025939941372"/><circle class="node ring" r="63.45120169054268" fill="none" stroke="rgba(255, 255, 255, 0)" stroke-width="10px" cx="-774.7184145088208" cy="-234.85025939941372"/><path class="relationship overlay" fill="rgba(255, 255, 255, 0)" stroke="rgba(255, 255, 255, 0)" stroke-width="10px" transform="translate(-774.7184145088208,-5.812560635397761) rotate(-90)" d="M 31.18091090456495 1 L 157.58649707347325 1 L 157.58649707347325 4 L 165.58649707347325 0 L 157.58649707347325 -4 L 157.58649707347325 -1 L 31.18091090456495 -1 Z"/><circle class="node overlay" r="25.45401851677881" stroke="none" fill="rgba(255, 255, 255, 0)" cx="-586.5794616699222" cy="-268.65660400390595"/><circle class="node ring" r="30.45401851677881" fill="none" stroke="rgba(255, 255, 255, 0)" stroke-width="10px" cx="-586.5794616699222" cy="-268.65660400390595"/><path class="relationship overlay" fill="rgba(255, 255, 255, 0)" stroke="rgba(255, 255, 255, 0)" stroke-width="10px" transform="translate(-774.7184145088208,-5.812560635397761) rotate(-54.40560649328324)" d="M 31.18091090456495 1 L 284.78468075919517 1 L 284.78468075919517 4 L 292.78468075919517 0 L 284.78468075919517 -4 L 284.78468075919517 -1 L 31.18091090456495 -1 Z"/><circle class="node overlay" r="78.80131832997293" stroke="none" fill="rgba(255, 255, 255, 0)" cx="-997.0350585937496" cy="-205.00660400390626"/><circle class="node ring" r="83.80131832997293" fill="none" stroke="rgba(255, 255, 255, 0)" stroke-width="10px" cx="-997.0350585937496" cy="-205.00660400390626"/><path class="relationship overlay" fill="rgba(255, 255, 255, 0)" stroke="rgba(255, 255, 255, 0)" stroke-width="10px" transform="translate(-774.7184145088208,-5.812560635397761) rotate(-138.1398988451358)" d="M 31.18091090456495 1 L 206.69986617467876 1 L 206.69986617467876 4 L 214.69986617467876 0 L 206.69986617467876 -4 L 206.69986617467876 -1 L 31.18091090456495 -1 Z"/><circle class="node overlay" r="52.422790815962166" stroke="none" fill="rgba(255, 255, 255, 0)" cx="-529.5794616699225" cy="202.94661254882797"/><circle class="node ring" r="57.422790815962166" fill="none" stroke="rgba(255, 255, 255, 0)" stroke-width="10px" cx="-529.5794616699225" cy="202.94661254882797"/><path class="relationship overlay" fill="rgba(255, 255, 255, 0)" stroke="rgba(255, 255, 255, 0)" stroke-width="10px" transform="translate(-774.7184145088208,-5.812560635397761) rotate(40.417558588379876)" d="M 31.18091090456495 1 L 256.56090222999507 1 L 256.56090222999507 4 L 264.56090222999507 0 L 256.56090222999507 -4 L 256.56090222999507 -1 L 31.18091090456495 -1 Z"/><circle class="node overlay" r="24.484687100753657" stroke="none" fill="rgba(255, 255, 255, 0)" cx="-1024.9361877441415" cy="180.19497375488268"/><circle class="node ring" r="29.484687100753657" fill="none" stroke="rgba(255, 255, 255, 0)" stroke-width="10px" cx="-1024.9361877441415" cy="180.19497375488268"/><path class="relationship overlay" fill="rgba(255, 255, 255, 0)" stroke="rgba(255, 255, 255, 0)" stroke-width="10px" transform="translate(-774.7184145088208,-5.812560635397761) rotate(143.37353017831617)" d="M 31.18091090456495 1 L 274.29686606234446 1 L 274.29686606234446 4 L 282.29686606234446 0 L 274.29686606234446 -4 L 274.29686606234446 -1 L 31.18091090456495 -1 Z"/><circle class="node overlay" r="27.76441260002711" stroke="none" fill="rgba(255, 255, 255, 0)" cx="-774.7184145088208" cy="216.94661254882794"/><circle class="node ring" r="32.764412600027114" fill="none" stroke="rgba(255, 255, 255, 0)" stroke-width="10px" cx="-774.7184145088208" cy="216.94661254882794"/><path class="relationship overlay" fill="rgba(255, 255, 255, 0)" stroke="rgba(255, 255, 255, 0)" stroke-width="10px" transform="translate(-774.7184145088208,-5.812560635397761) rotate(90)" d="M 31.18091090456495 1 L 181.99476058419862 1 L 181.99476058419862 4 L 189.99476058419862 0 L 181.99476058419862 -4 L 181.99476058419862 -1 L 31.18091090456495 -1 Z"/></g></svg>