<svg xmlns="http://www.w3.org/2000/svg" xmlns:xlink="http://www.w3.org/1999/xlink" width="1311" height="1000" viewbox="0 0 1311 1000"><path transform="translate(597.9907484000836 695.9545694083797) scale(1) translate(-95 180.99339128840208) rotate(-17.17815864395572)" d="M 80 0 L 514.7429583861729 0" fill="none" stroke="#848484" stroke-width="3"></path><polygon transform="translate(597.9907484000836 695.9545694083797) scale(1) translate(-95 180.99339128840208) rotate(-17.17815864395572) translate(532.8225699274808 0) rotate(0)" points="-18.079611541307905,0 -20.088457268119896,6.696152422706632 0,0 -20.088457268119896,-6.696152422706632" fill="undefined" stroke="none" stroke-width="3"></polygon><rect transform="translate(597.9907484000836 695.9545694083797) scale(1) translate(189.1060401344185 93.1665468920308) rotate(-17.17815864395572) translate(0 -34) translate(0 0) translate(-56.561767578125 0)" x="0" y="0" width="113.12353515625" height="31" rx="5" ry="5" fill="#ffffff" stroke="none"></rect><text xml:space="preserve" transform="translate(597.9907484000836 695.9545694083797) scale(1) translate(189.1060401344185 93.1665468920308) rotate(-17.17815864395572) translate(0 -34) translate(0 0) translate(-56.561767578125 0)" x="5" y="22" font-family="sans-serif" font-size="21" font-weight="normal" text-anchor="left" fill="#848484">PLAYS_AT</text><path transform="translate(597.9907484000836 695.9545694083797) scale(1) translate(490.48517873849323 0) rotate(-148.71003506192596)" d="M 80 0 L 331.45833657464084 0" fill="none" stroke="#848484" stroke-width="3"></path><polygon transform="translate(597.9907484000836 695.9545694083797) scale(1) translate(490.48517873849323 0) rotate(-148.71003506192596) translate(349.5379481159488 0) rotate(0)" points="-18.079611541307905,0 -20.088457268119896,6.696152422706632 0,0 -20.088457268119896,-6.696152422706632" fill="undefined" stroke="none" stroke-width="3"></polygon><rect transform="translate(597.9907484000836 695.9545694083797) scale(1) translate(314.67935745084566 -106.84944494740408) rotate(31.289964938074043) translate(0 -34) translate(0 0) translate(-54.418701171875 0)" x="0" y="0" width="108.83740234375" height="31" rx="5" ry="5" fill="#ffffff" stroke="none"></rect><text xml:space="preserve" transform="translate(597.9907484000836 695.9545694083797) scale(1) translate(314.67935745084566 -106.84944494740408) rotate(31.289964938074043) translate(0 -34) translate(0 0) translate(-54.418701171875 0)" x="5" y="22" font-family="sans-serif" font-size="21" font-weight="normal" text-anchor="left" fill="#848484">PLAYS_IN</text><path transform="translate(597.9907484000836 695.9545694083797) scale(1) translate(490.48517873849323 0) rotate(-90)" d="M 80 0 L 269.14136483113873 0" fill="none" stroke="#848484" stroke-width="3"></path><polygon transform="translate(597.9907484000836 695.9545694083797) scale(1) translate(490.48517873849323 0) rotate(-90) translate(287.22097637244667 0) rotate(0)" points="-18.079611541307905,0 -20.088457268119896,6.696152422706632 0,0 -20.088457268119896,-6.696152422706632" fill="undefined" stroke="none" stroke-width="3"></polygon><rect transform="translate(597.9907484000836 695.9545694083797) scale(1) translate(490.48517873849323 -174.57068241556937) rotate(90) translate(0 -34) translate(0 0) translate(-51.09130859375 0)" x="0" y="0" width="102.1826171875" height="31" rx="5" ry="5" fill="#ffffff" stroke="none"></rect><text xml:space="preserve" transform="translate(597.9907484000836 695.9545694083797) scale(1) translate(490.48517873849323 -174.57068241556937) rotate(90) translate(0 -34) translate(0 0) translate(-51.09130859375 0)" x="5" y="22" font-family="sans-serif" font-size="21" font-weight="normal" text-anchor="left" fill="#848484">AGAINST</text><path transform="translate(597.9907484000836 695.9545694083797) scale(1) translate(-95 -572.9545694083797) rotate(19.360961405254578)" d="M 80 0 L 522.5001221157947 0" fill="none" stroke="#848484" stroke-width="3"></path><polygon transform="translate(597.9907484000836 695.9545694083797) scale(1) translate(-95 -572.9545694083797) rotate(19.360961405254578) translate(540.5797336571026 0) rotate(0)" points="-18.079611541307905,0 -20.088457268119896,6.696152422706632 0,0 -20.088457268119896,-6.696152422706632" fill="undefined" stroke="none" stroke-width="3"></polygon><rect transform="translate(597.9907484000836 695.9545694083797) scale(1) translate(189.2139958455706 -473.0846347289134) rotate(19.360961405254578) translate(0 -34) translate(0 0) translate(-56.561767578125 0)" x="0" y="0" width="113.12353515625" height="31" rx="5" ry="5" fill="#ffffff" stroke="none"></rect><text xml:space="preserve" transform="translate(597.9907484000836 695.9545694083797) scale(1) translate(189.2139958455706 -473.0846347289134) rotate(19.360961405254578) translate(0 -34) translate(0 0) translate(-56.561767578125 0)" x="5" y="22" font-family="sans-serif" font-size="21" font-weight="normal" text-anchor="left" fill="#848484">PLAYS_AT</text><path transform="translate(597.9907484000836 695.9545694083797) scale(1) translate(490.48517873849323 -367.22097637244667) rotate(158.5618207273005)" d="M 80 0 L 296.2657396071023 0" fill="none" stroke="#848484" stroke-width="3"></path><polygon transform="translate(597.9907484000836 695.9545694083797) scale(1) translate(490.48517873849323 -367.22097637244667) rotate(158.5618207273005) translate(314.3453511484102 0) rotate(0)" points="-18.079611541307905,0 -20.088457268119896,6.696152422706632 0,0 -20.088457268119896,-6.696152422706632" fill="undefined" stroke="none" stroke-width="3"></polygon><rect transform="translate(597.9907484000836 695.9545694083797) scale(1) translate(315.3687571203114 -298.4589550222631) rotate(338.56182072730047) translate(0 -34) translate(0 0) translate(-54.418701171875 0)" x="0" y="0" width="108.83740234375" height="31" rx="5" ry="5" fill="#ffffff" stroke="none"></rect><text xml:space="preserve" transform="translate(597.9907484000836 695.9545694083797) scale(1) translate(315.3687571203114 -298.4589550222631) rotate(338.56182072730047) translate(0 -34) translate(0 0) translate(-54.418701171875 0)" x="5" y="22" font-family="sans-serif" font-size="21" font-weight="normal" text-anchor="left" fill="#848484">PLAYS_IN</text><path transform="translate(597.9907484000836 695.9545694083797) scale(1) translate(-95 180.99339128840208) rotate(-123.21379567649097)" d="M 80 0 L 384.9070100731987 0" fill="none" stroke="#848484" stroke-width="3"></path><polygon transform="translate(597.9907484000836 695.9545694083797) scale(1) translate(-95 180.99339128840208) rotate(-123.21379567649097) translate(402.9866216145066 0) rotate(0)" points="-18.079611541307905,0 -20.088457268119896,6.696152422706632 0,0 -20.088457268119896,-6.696152422706632" fill="undefined" stroke="none" stroke-width="3"></polygon><rect transform="translate(597.9907484000836 695.9545694083797) scale(1) translate(-222.32982066377497 -13.484753431078502) rotate(56.786204323509025) translate(0 -34) translate(0 0) translate(-26.589599609375 0)" x="0" y="0" width="53.17919921875" height="31" rx="5" ry="5" fill="#ffffff" stroke="none"></rect><text xml:space="preserve" transform="translate(597.9907484000836 695.9545694083797) scale(1) translate(-222.32982066377497 -13.484753431078502) rotate(56.786204323509025) translate(0 -34) translate(0 0) translate(-26.589599609375 0)" x="5" y="22" font-family="sans-serif" font-size="21" font-weight="normal" text-anchor="left" fill="#848484">HAS</text><path transform="translate(597.9907484000836 695.9545694083797) scale(1) translate(-95 -572.9545694083797) rotate(127.096007416037)" d="M 80 0 L 340.55415774853924 0" fill="none" stroke="#848484" stroke-width="3"></path><polygon transform="translate(597.9907484000836 695.9545694083797) scale(1) translate(-95 -572.9545694083797) rotate(127.096007416037) translate(358.6337692898471 0) rotate(0)" points="-18.079611541307905,0 -20.088457268119896,6.696152422706632 0,0 -20.088457268119896,-6.696152422706632" fill="undefined" stroke="none" stroke-width="3"></polygon><rect transform="translate(597.9907484000836 695.9545694083797) scale(1) translate(-221.82912639725635 -405.2321123634014) rotate(307.096007416037) translate(0 -34) translate(0 0) translate(-26.589599609375 0)" x="0" y="0" width="53.17919921875" height="31" rx="5" ry="5" fill="#ffffff" stroke="none"></rect><text xml:space="preserve" transform="translate(597.9907484000836 695.9545694083797) scale(1) translate(-221.82912639725635 -405.2321123634014) rotate(307.096007416037) translate(0 -34) translate(0 0) translate(-26.589599609375 0)" x="5" y="22" font-family="sans-serif" font-size="21" font-weight="normal" text-anchor="left" fill="#848484">HAS</text><path transform="translate(597.9907484000836 695.9545694083797) scale(1) translate(-359.5630140250836 -223.08888779416046) rotate(0)" d="M 80 0 L 384.90701007319865 0" fill="none" stroke="#848484" stroke-width="3"></path><polygon transform="translate(597.9907484000836 695.9545694083797) scale(1) translate(-359.5630140250836 -223.08888779416046) rotate(0) translate(402.98662161450653 0) rotate(0)" points="-18.079611541307905,0 -20.088457268119896,6.696152422706632 0,0 -20.088457268119896,-6.696152422706632" fill="undefined" stroke="none" stroke-width="3"></polygon><rect transform="translate(597.9907484000836 695.9545694083797) scale(1) translate(-127.10950898848427 -223.08888779416046) rotate(0) translate(0 -34) translate(0 0) translate(-35.910400390625 0)" x="0" y="0" width="71.82080078125" height="31" rx="5" ry="5" fill="#ffffff" stroke="none"></rect><text xml:space="preserve" transform="translate(597.9907484000836 695.9545694083797) scale(1) translate(-127.10950898848427 -223.08888779416046) rotate(0) translate(0 -34) translate(0 0) translate(-35.910400390625 0)" x="5" y="22" font-family="sans-serif" font-size="21" font-weight="normal" text-anchor="left" fill="#848484">FROM</text><circle transform="translate(597.9907484000836 695.9545694083797) scale(1)" cx="-95" cy="180.99339128840208" r="75" fill="#9f0500" stroke="none" strokewidth="0"></circle><rect transform="translate(597.9907484000836 695.9545694083797) scale(1) translate(-95 180.99339128840208) scale(1) translate(0 -16.5) translate(0 0) translate(-44.8447265625 0)" x="0" y="0" width="89.689453125" height="33" rx="16.5" ry="16.5" fill="#ffffff" stroke="#848484"></rect><text xml:space="preserve" transform="translate(597.9907484000836 695.9545694083797) scale(1) translate(-95 180.99339128840208) scale(1) translate(0 -16.5) translate(0 0) translate(-44.8447265625 0)" x="16.5" y="22.5" font-family="sans-serif" font-size="20" font-weight="normal" text-anchor="undefined" fill="#000000">Player</text><rect transform="translate(597.9907484000836 695.9545694083797) scale(1) translate(-95 180.99339128840208) translate(4.592425496802574e-15 75) translate(0 0) translate(-156.19140625 0)" x="0" y="0" width="312.3828125" height="48" rx="0" ry="0" fill="white" stroke="none"></rect><text xml:space="preserve" transform="translate(597.9907484000836 695.9545694083797) scale(1) translate(-95 180.99339128840208) translate(4.592425496802574e-15 75) translate(0 0) translate(-156.19140625 0)" x="87.802734375" y="18" font-family="sans-serif" font-size="20" font-weight="normal" text-anchor="end" fill="#848484">Name:</text><text xml:space="preserve" transform="translate(597.9907484000836 695.9545694083797) scale(1) translate(-95 180.99339128840208) translate(4.592425496802574e-15 75) translate(0 0) translate(-156.19140625 0)" x="93.359375" y="18" font-family="sans-serif" font-size="20" font-weight="normal" text-anchor="start" fill="#848484">Giannis Antetokounmpo</text><text xml:space="preserve" transform="translate(597.9907484000836 695.9545694083797) scale(1) translate(-95 180.99339128840208) translate(4.592425496802574e-15 75) translate(0 0) translate(-156.19140625 0)" x="87.802734375" y="42" font-family="sans-serif" font-size="20" font-weight="normal" text-anchor="end" fill="#848484">PlayerID:</text><text xml:space="preserve" transform="translate(597.9907484000836 695.9545694083797) scale(1) translate(-95 180.99339128840208) translate(4.592425496802574e-15 75) translate(0 0) translate(-156.19140625 0)" x="93.359375" y="42" font-family="sans-serif" font-size="20" font-weight="normal" text-anchor="start" fill="#848484">123457</text><circle transform="translate(597.9907484000836 695.9545694083797) scale(1)" cx="490.48517873849323" cy="0" r="75" fill="#4C8EDA" stroke="none" strokewidth="0"></circle><rect transform="translate(597.9907484000836 695.9545694083797) scale(1) translate(490.48517873849323 0) scale(1) translate(0 -16.5) translate(0 0) translate(-40.953125 0)" x="0" y="0" width="81.90625" height="33" rx="16.5" ry="16.5" fill="#ffffff" stroke="#848484"></rect><text xml:space="preserve" transform="translate(597.9907484000836 695.9545694083797) scale(1) translate(490.48517873849323 0) scale(1) translate(0 -16.5) translate(0 0) translate(-40.953125 0)" x="16.5" y="22.5" font-family="sans-serif" font-size="20" font-weight="normal" text-anchor="undefined" fill="#000000">Team</text><rect transform="translate(597.9907484000836 695.9545694083797) scale(1) translate(490.48517873849323 0) translate(53.033008588991066 53.03300858899106) translate(0 0) translate(0 0)" x="0" y="0" width="168.994140625" height="48" rx="0" ry="0" fill="white" stroke="none"></rect><text xml:space="preserve" transform="translate(597.9907484000836 695.9545694083797) scale(1) translate(490.48517873849323 0) translate(53.033008588991066 53.03300858899106) translate(0 0) translate(0 0)" x="80.01953125" y="18" font-family="sans-serif" font-size="20" font-weight="normal" text-anchor="end" fill="#848484">TeamID:</text><text xml:space="preserve" transform="translate(597.9907484000836 695.9545694083797) scale(1) translate(490.48517873849323 0) translate(53.033008588991066 53.03300858899106) translate(0 0) translate(0 0)" x="85.576171875" y="18" font-family="sans-serif" font-size="20" font-weight="normal" text-anchor="start" fill="#848484">1234567</text><text xml:space="preserve" transform="translate(597.9907484000836 695.9545694083797) scale(1) translate(490.48517873849323 0) translate(53.033008588991066 53.03300858899106) translate(0 0) translate(0 0)" x="80.01953125" y="42" font-family="sans-serif" font-size="20" font-weight="normal" text-anchor="end" fill="#848484">Name:</text><text xml:space="preserve" transform="translate(597.9907484000836 695.9545694083797) scale(1) translate(490.48517873849323 0) translate(53.033008588991066 53.03300858899106) translate(0 0) translate(0 0)" x="85.576171875" y="42" font-family="sans-serif" font-size="20" font-weight="normal" text-anchor="start" fill="#848484">MIL</text><circle transform="translate(597.9907484000836 695.9545694083797) scale(1)" cx="123.42360758942296" cy="-223.08888779416046" r="75" fill="#fe9200" stroke="none" strokewidth="0"></circle><rect transform="translate(597.9907484000836 695.9545694083797) scale(1) translate(123.42360758942296 -223.08888779416046) scale(0.8758648088176813) translate(0 -16.5) translate(0 0) translate(-78.19921875 0)" x="0" y="0" width="156.3984375" height="33" rx="16.5" ry="16.5" fill="#ffffff" stroke="#848484"></rect><text xml:space="preserve" transform="translate(597.9907484000836 695.9545694083797) scale(1) translate(123.42360758942296 -223.08888779416046) scale(0.8758648088176813) translate(0 -16.5) translate(0 0) translate(-78.19921875 0)" x="16.5" y="22.5" font-family="sans-serif" font-size="20" font-weight="normal" text-anchor="undefined" fill="#000000">Game_details</text><rect transform="translate(597.9907484000836 695.9545694083797) scale(1) translate(123.42360758942296 -223.08888779416046) translate(4.592425496802574e-15 -99) translate(0 0) translate(-115.078125 0)" x="0" y="0" width="230.15625" height="24" rx="0" ry="0" fill="white" stroke="none"></rect><text xml:space="preserve" transform="translate(597.9907484000836 695.9545694083797) scale(1) translate(123.42360758942296 -223.08888779416046) translate(4.592425496802574e-15 -99) translate(0 0) translate(-115.078125 0)" x="118.9453125" y="18" font-family="sans-serif" font-size="20" font-weight="normal" text-anchor="end" fill="#848484">Game_Date:</text><text xml:space="preserve" transform="translate(597.9907484000836 695.9545694083797) scale(1) translate(123.42360758942296 -223.08888779416046) translate(4.592425496802574e-15 -99) translate(0 0) translate(-115.078125 0)" x="124.501953125" y="18" font-family="sans-serif" font-size="20" font-weight="normal" text-anchor="start" fill="#848484">01/01/2019</text><circle transform="translate(597.9907484000836 695.9545694083797) scale(1)" cx="490.48517873849323" cy="-367.22097637244667" r="75" fill="#4C8EDA" stroke="none" strokewidth="0"></circle><rect transform="translate(597.9907484000836 695.9545694083797) scale(1) translate(490.48517873849323 -367.22097637244667) scale(1) translate(0 -16.5) translate(0 0) translate(-40.953125 0)" x="0" y="0" width="81.90625" height="33" rx="16.5" ry="16.5" fill="#ffffff" stroke="#848484"></rect><text xml:space="preserve" transform="translate(597.9907484000836 695.9545694083797) scale(1) translate(490.48517873849323 -367.22097637244667) scale(1) translate(0 -16.5) translate(0 0) translate(-40.953125 0)" x="16.5" y="22.5" font-family="sans-serif" font-size="20" font-weight="normal" text-anchor="undefined" fill="#000000">Team</text><rect transform="translate(597.9907484000836 695.9545694083797) scale(1) translate(490.48517873849323 -367.22097637244667) translate(53.033008588991066 -101.03300858899107) translate(0 0) translate(0 0)" x="0" y="0" width="146.748046875" height="48" rx="0" ry="0" fill="white" stroke="none"></rect><text xml:space="preserve" transform="translate(597.9907484000836 695.9545694083797) scale(1) translate(490.48517873849323 -367.22097637244667) translate(53.033008588991066 -101.03300858899107) translate(0 0) translate(0 0)" x="80.01953125" y="18" font-family="sans-serif" font-size="20" font-weight="normal" text-anchor="end" fill="#848484">TeamID:</text><text xml:space="preserve" transform="translate(597.9907484000836 695.9545694083797) scale(1) translate(490.48517873849323 -367.22097637244667) translate(53.033008588991066 -101.03300858899107) translate(0 0) translate(0 0)" x="85.576171875" y="18" font-family="sans-serif" font-size="20" font-weight="normal" text-anchor="start" fill="#848484">12345</text><text xml:space="preserve" transform="translate(597.9907484000836 695.9545694083797) scale(1) translate(490.48517873849323 -367.22097637244667) translate(53.033008588991066 -101.03300858899107) translate(0 0) translate(0 0)" x="80.01953125" y="42" font-family="sans-serif" font-size="20" font-weight="normal" text-anchor="end" fill="#848484">Name :</text><text xml:space="preserve" transform="translate(597.9907484000836 695.9545694083797) scale(1) translate(490.48517873849323 -367.22097637244667) translate(53.033008588991066 -101.03300858899107) translate(0 0) translate(0 0)" x="85.576171875" y="42" font-family="sans-serif" font-size="20" font-weight="normal" text-anchor="start" fill="#848484">CHA</text><circle transform="translate(597.9907484000836 695.9545694083797) scale(1)" cx="-95" cy="-572.9545694083797" r="75" fill="#9f0500" stroke="none" strokewidth="0"></circle><rect transform="translate(597.9907484000836 695.9545694083797) scale(1) translate(-95 -572.9545694083797) scale(1) translate(0 -16.5) translate(0 0) translate(-44.8447265625 0)" x="0" y="0" width="89.689453125" height="33" rx="16.5" ry="16.5" fill="#ffffff" stroke="#848484"></rect><text xml:space="preserve" transform="translate(597.9907484000836 695.9545694083797) scale(1) translate(-95 -572.9545694083797) scale(1) translate(0 -16.5) translate(0 0) translate(-44.8447265625 0)" x="16.5" y="22.5" font-family="sans-serif" font-size="20" font-weight="normal" text-anchor="undefined" fill="#000000">Player</text><rect transform="translate(597.9907484000836 695.9545694083797) scale(1) translate(-95 -572.9545694083797) translate(4.592425496802574e-15 -123) translate(0 0) translate(-136.5185546875 0)" x="0" y="0" width="273.037109375" height="48" rx="0" ry="0" fill="white" stroke="none"></rect><text xml:space="preserve" transform="translate(597.9907484000836 695.9545694083797) scale(1) translate(-95 -572.9545694083797) translate(4.592425496802574e-15 -123) translate(0 0) translate(-136.5185546875 0)" x="87.802734375" y="18" font-family="sans-serif" font-size="20" font-weight="normal" text-anchor="end" fill="#848484">Name :</text><text xml:space="preserve" transform="translate(597.9907484000836 695.9545694083797) scale(1) translate(-95 -572.9545694083797) translate(4.592425496802574e-15 -123) translate(0 0) translate(-136.5185546875 0)" x="93.359375" y="18" font-family="sans-serif" font-size="20" font-weight="normal" text-anchor="start" fill="#848484">P.J. WASHINGTON</text><text xml:space="preserve" transform="translate(597.9907484000836 695.9545694083797) scale(1) translate(-95 -572.9545694083797) translate(4.592425496802574e-15 -123) translate(0 0) translate(-136.5185546875 0)" x="87.802734375" y="42" font-family="sans-serif" font-size="20" font-weight="normal" text-anchor="end" fill="#848484">PlayerID:</text><text xml:space="preserve" transform="translate(597.9907484000836 695.9545694083797) scale(1) translate(-95 -572.9545694083797) translate(4.592425496802574e-15 -123) translate(0 0) translate(-136.5185546875 0)" x="93.359375" y="42" font-family="sans-serif" font-size="20" font-weight="normal" text-anchor="start" fill="#848484">123456</text><circle transform="translate(597.9907484000836 695.9545694083797) scale(1)" cx="-359.5630140250836" cy="-223.08888779416046" r="75" fill="#fe9200" stroke="none" strokewidth="0"></circle><rect transform="translate(597.9907484000836 695.9545694083797) scale(1) translate(-359.5630140250836 -223.08888779416046) scale(0.8758648088176813) translate(0 -16.5) translate(0 0) translate(-78.19921875 0)" x="0" y="0" width="156.3984375" height="33" rx="16.5" ry="16.5" fill="#ffffff" stroke="#848484"></rect><text xml:space="preserve" transform="translate(597.9907484000836 695.9545694083797) scale(1) translate(-359.5630140250836 -223.08888779416046) scale(0.8758648088176813) translate(0 -16.5) translate(0 0) translate(-78.19921875 0)" x="16.5" y="22.5" font-family="sans-serif" font-size="20" font-weight="normal" text-anchor="undefined" fill="#000000">Game_details</text><rect transform="translate(597.9907484000836 695.9545694083797) scale(1) translate(-359.5630140250836 -223.08888779416046) translate(-75 -23.99999999999999) translate(0 0) translate(-163.427734375 0)" x="0" y="0" width="163.427734375" height="48" rx="0" ry="0" fill="white" stroke="none"></rect><text xml:space="preserve" transform="translate(597.9907484000836 695.9545694083797) scale(1) translate(-359.5630140250836 -223.08888779416046) translate(-75 -23.99999999999999) translate(0 0) translate(-163.427734375 0)" x="85.576171875" y="18" font-family="sans-serif" font-size="20" font-weight="normal" text-anchor="end" fill="#848484">GameID:</text><text xml:space="preserve" transform="translate(597.9907484000836 695.9545694083797) scale(1) translate(-359.5630140250836 -223.08888779416046) translate(-75 -23.99999999999999) translate(0 0) translate(-163.427734375 0)" x="91.1328125" y="18" font-family="sans-serif" font-size="20" font-weight="normal" text-anchor="start" fill="#848484">123456</text><text xml:space="preserve" transform="translate(597.9907484000836 695.9545694083797) scale(1) translate(-359.5630140250836 -223.08888779416046) translate(-75 -23.99999999999999) translate(0 0) translate(-163.427734375 0)" x="85.576171875" y="42" font-family="sans-serif" font-size="20" font-weight="normal" text-anchor="end" fill="#848484">Stats:</text><text xml:space="preserve" transform="translate(597.9907484000836 695.9545694083797) scale(1) translate(-359.5630140250836 -223.08888779416046) translate(-75 -23.99999999999999) translate(0 0) translate(-163.427734375 0)" x="91.1328125" y="42" font-family="sans-serif" font-size="20" font-weight="normal" text-anchor="start" fill="#848484">123</text></svg>